<?xml version="1.0" encoding="utf-8"?>
<!-- Generator: Adobe Illustrator 19.2.0, SVG Export Plug-In . SVG Version: 6.00 Build 0)  -->
<svg version="1.1" id="Layer_1" xmlns="http://www.w3.org/2000/svg" xmlns:xlink="http://www.w3.org/1999/xlink" x="0px" y="0px"
	 viewBox="0 0 500 500" style="enable-background:new 0 0 500 500;" xml:space="preserve">
<style type="text/css">
	.st0{fill:#ECF4F7;}
	.st1{fill:#1C1D21;}
	.st2{fill:#83E1E5;}
	.st3{fill:#AAB1BA;}
	.st4{fill:none;stroke:#1C1D21;stroke-width:10;stroke-linecap:round;stroke-linejoin:round;stroke-miterlimit:10;}
	.st5{fill:#FDDF7F;}
	.st6{fill:#FFFFFF;}
</style>
<g>
	<g>
		<g>
			<path class="st1" d="M465,500H35c-19.3,0-35-15.7-35-35V280c0-19.3,15.7-35,35-35h47.5c2.8,0,5,2.2,5,5s-2.2,5-5,5H35
				c-13.8,0-25,11.2-25,25v185c0,13.8,11.2,25,25,25h430c13.8,0,25-11.2,25-25V280c0-13.8-11.2-25-25-25h-47.5c-2.8,0-5-2.2-5-5
				s2.2-5,5-5H465c19.3,0,35,15.7,35,35v185C500,484.3,484.3,500,465,500z"/>
		</g>
	</g>
	<g>
		<g>
			<path class="st1" d="M485.1,491.8c-0.9,0-1.9-0.3-2.8-0.8L309.9,376.7c-2.3-1.5-2.9-4.6-1.4-6.9c1.5-2.3,4.6-2.9,6.9-1.4
				l172.5,114.2c2.3,1.5,2.9,4.6,1.4,6.9C488.3,491,486.8,491.8,485.1,491.8z"/>
		</g>
	</g>
	<g>
		<g>
			<path class="st1" d="M14.9,491.8c-1.6,0-3.2-0.8-4.2-2.2c-1.5-2.3-0.9-5.4,1.4-6.9L185,368.1c2.3-1.5,5.4-0.9,6.9,1.4
				c1.5,2.3,0.9,5.4-1.4,6.9L17.6,490.9C16.8,491.5,15.8,491.8,14.9,491.8z"/>
		</g>
	</g>
	<g>
		<g>
			<path class="st0" d="M417.5,35c0-16.6-13.4-30-30-30H112.5c-16.6,0-30,13.4-30,30v267.5l151,100c10,6.7,23.1,6.7,33.1,0l151-100
				V35z"/>
		</g>
	</g>
	<g>
		<g>
			<g>
				<path class="st1" d="M82.5,47c-2.8,0-5-2.2-5-5v-7c0-19.3,15.7-35,35-35H127c2.8,0,5,2.2,5,5s-2.2,5-5,5h-14.5
					c-13.8,0-25,11.2-25,25v7C87.5,44.8,85.2,47,82.5,47z"/>
			</g>
		</g>
		<g>
			<g>
				<path class="st1" d="M82.5,142c-2.8,0-5-2.2-5-5V72.5c0-2.8,2.2-5,5-5c2.8,0,5,2.2,5,5V137C87.5,139.7,85.2,142,82.5,142z"/>
			</g>
		</g>
		<g>
			<g>
				<path class="st1" d="M160.7,10h-8.3c-2.8,0-5-2.2-5-5s2.2-5,5-5h8.3c2.8,0,5,2.2,5,5S163.4,10,160.7,10z"/>
			</g>
		</g>
	</g>
	<g>
		<g>
			<g>
				<path class="st1" d="M417.5,47c-2.8,0-5-2.2-5-5v-7c0-13.8-11.2-25-25-25H373c-2.8,0-5-2.2-5-5s2.2-5,5-5h14.5
					c19.3,0,35,15.7,35,35v7C422.5,44.8,420.3,47,417.5,47z"/>
			</g>
		</g>
		<g>
			<g>
				<path class="st1" d="M417.5,142c-2.8,0-5-2.2-5-5V72.5c0-2.8,2.2-5,5-5c2.8,0,5,2.2,5,5V137C422.5,139.7,420.3,142,417.5,142z"
					/>
			</g>
		</g>
		<g>
			<g>
				<path class="st1" d="M347.7,10h-8.3c-2.8,0-5-2.2-5-5s2.2-5,5-5h8.3c2.8,0,5,2.2,5,5S350.4,10,347.7,10z"/>
			</g>
		</g>
	</g>
	<g>
		<g>
			<g>
				<path class="st1" d="M376.3,74.7H123.7c-2.8,0-5-2.2-5-5c0-2.8,2.2-5,5-5h252.5c2.8,0,5,2.2,5,5C381.3,72.5,379,74.7,376.3,74.7
					z"/>
			</g>
		</g>
		<g>
			<g>
				<path class="st1" d="M376.3,108.4H123.7c-2.8,0-5-2.2-5-5c0-2.8,2.2-5,5-5h252.5c2.8,0,5,2.2,5,5
					C381.3,106.1,379,108.4,376.3,108.4z"/>
			</g>
		</g>
		<g>
			<g>
				<path class="st1" d="M376.3,142H123.7c-2.8,0-5-2.2-5-5c0-2.8,2.2-5,5-5h252.5c2.8,0,5,2.2,5,5C381.3,139.7,379,142,376.3,142z"
					/>
			</g>
		</g>
		<g>
			<g>
				<path class="st1" d="M376.3,175.6H123.7c-2.8,0-5-2.2-5-5c0-2.8,2.2-5,5-5h252.5c2.8,0,5,2.2,5,5
					C381.3,173.3,379,175.6,376.3,175.6z"/>
			</g>
		</g>
		<g>
			<g>
				<path class="st1" d="M376.3,209.2H123.7c-2.8,0-5-2.2-5-5c0-2.8,2.2-5,5-5h252.5c2.8,0,5,2.2,5,5
					C381.3,206.9,379,209.2,376.3,209.2z"/>
			</g>
		</g>
		<g>
			<g>
				<path class="st1" d="M376.3,242.8H123.7c-2.8,0-5-2.2-5-5c0-2.8,2.2-5,5-5h252.5c2.8,0,5,2.2,5,5
					C381.3,240.6,379,242.8,376.3,242.8z"/>
			</g>
		</g>
	</g>
	<g>
		<g>
			<path class="st1" d="M250,412.5c-6.7,0-13.5-1.9-19.3-5.8L12.1,261.9c-2.3-1.5-2.9-4.6-1.4-6.9c1.5-2.3,4.6-2.9,6.9-1.4
				l218.6,144.8c8.4,5.6,19.2,5.6,27.6,0l218.6-144.8c2.3-1.5,5.4-0.9,6.9,1.4c1.5,2.3,0.9,5.4-1.4,6.9L269.3,406.7
				C263.5,410.6,256.7,412.5,250,412.5z"/>
		</g>
	</g>
</g>
</svg>
