<svg xmlns="http://www.w3.org/2000/svg" viewBox="0 0 48 48"><defs><style>.cls-1{fill:#dad7e5;}.cls-2{fill:#edebf2;}.cls-3{fill:#9dcc6b;}.cls-4{fill:#b5e08c;}</style></defs><title>Strategy marketing</title><g id="Strategy_marketing" data-name="Strategy marketing"><rect class="cls-1" x="5" y="5" width="38" height="26"/><path class="cls-2" d="M43,5V28H31A23,23,0,0,1,8,5Z"/><path class="cls-3" d="M15,24a3,3,0,1,1-4.56-2.56A3,3,0,0,1,15,24Z"/><path class="cls-4" d="M14.56,25.56a3,3,0,0,1-4.12-4.12A3,3,0,0,1,14.56,25.56Z"/><path class="cls-3" d="M39,12a3,3,0,1,1-4.56-2.56A3,3,0,0,1,39,12Z"/><path class="cls-4" d="M38.56,13.56a3,3,0,0,1-4.12-4.12A3,3,0,0,1,38.56,13.56Z"/><path d="M47,30H44V6h3a1,1,0,0,0,0-2H30V1a1,1,0,0,0-1-1H19a1,1,0,0,0-1,1V4H1A1,1,0,0,0,1,6H4V30H1a1,1,0,0,0,0,2H17.56l-5.5,14.65A1,1,0,0,0,13,48c.91,0,.92-.6,2.19-4H23v3a1,1,0,0,0,2,0V44h7.81c1.3,3.47,1.29,4,2.19,4a1,1,0,0,0,.94-1.35L30.44,32H47A1,1,0,0,0,47,30ZM20,2h8V4H20ZM15.94,42l3.75-10H23V42Zm16.12,0H25V32h3.31ZM6,30V6H42V30Z"/><path d="M9.71,13.71,11,12.41l1.29,1.3a1,1,0,0,0,1.42-1.42L12.41,11l1.3-1.29a1,1,0,0,0-1.42-1.42L11,9.59,9.71,8.29A1,1,0,0,0,8.29,9.71L9.59,11l-1.3,1.29A1,1,0,0,0,9.71,13.71Z"/><path d="M38.29,22.29,37,23.59l-1.29-1.3a1,1,0,0,0-1.42,1.42L35.59,25l-1.3,1.29a1,1,0,0,0,1.42,1.42L37,26.41l1.29,1.3a1,1,0,0,0,1.42-1.42L38.41,25l1.3-1.29A1,1,0,0,0,38.29,22.29Z"/><path d="M12,20a4,4,0,1,0,4,4A4,4,0,0,0,12,20Zm0,6a2,2,0,1,1,2-2A2,2,0,0,1,12,26Z"/><path d="M36,8a4,4,0,1,0,4,4A4,4,0,0,0,36,8Zm0,6a2,2,0,1,1,2-2A2,2,0,0,1,36,14Z"/><path d="M27.71,9.29a1,1,0,0,0-1.42,1.42l.33.33A5,5,0,0,0,22,16v4a3,3,0,0,1-3,3,1,1,0,0,0,0,2,5,5,0,0,0,5-5V16a3,3,0,0,1,2.54-2.95l-.25.24A1,1,0,0,0,27,15c.54,0,.57-.15,2.71-2.29a1,1,0,0,0,0-1.42Z"/></g></svg>