<svg xmlns="http://www.w3.org/2000/svg" viewBox="0 0 48 48"><defs><style>.cls-1{fill:#dad7e5;}.cls-2{fill:#edebf2;}.cls-3{fill:#db5669;}.cls-4{fill:#f26674;}.cls-5{fill:#c6c3d8;}</style></defs><title>Digital Marketing</title><g id="Digital_Marketing" data-name="Digital Marketing"><rect class="cls-1" x="35" y="18" width="12" height="12" rx="2"/><path class="cls-2" d="M47,20c0,8.55-.1,8,0,8A10,10,0,0,1,37,18h8A2,2,0,0,1,47,20Z"/><rect class="cls-1" x="35" y="1" width="12" height="12" rx="2"/><path class="cls-2" d="M47,3c0,8.55-.1,8,0,8A10,10,0,0,1,37,1h8A2,2,0,0,1,47,3Z"/><rect class="cls-1" x="35" y="35" width="12" height="12" rx="2"/><path class="cls-2" d="M47,37c0,8.55-.1,8,0,8A10,10,0,0,1,37,35h8A2,2,0,0,1,47,37Z"/><path class="cls-1" d="M23,16V32L13,28V20Z"/><path class="cls-2" d="M23,16V29.2l-1.69-.67A10.07,10.07,0,0,1,15,19.2Z"/><rect class="cls-1" x="5" y="20" width="8" height="8"/><path class="cls-2" d="M13,20v6a6,6,0,0,1-6-6Z"/><path class="cls-3" d="M5,20v8a4,4,0,1,1,0-8Z"/><path class="cls-4" d="M5,20v5.87a4,4,0,0,1-2.93-4.59A4,4,0,0,1,5,20Z"/><path class="cls-5" d="M10,36H6c-1-8.06-.82-6.62-1-8H9Z"/><path class="cls-1" d="M8.88,36H6l-.87-7a3.26,3.26,0,0,1,3.23,2.85Z"/><path d="M45,17H37a3,3,0,0,0-3,3v8a3,3,0,0,0,3,3h8a3,3,0,0,0,3-3V20A3,3,0,0,0,45,17Zm1,11a1,1,0,0,1-1,1H37a1,1,0,0,1-1-1V20a1,1,0,0,1,1-1h8a1,1,0,0,1,1,1Z"/><path d="M45,0H37a3,3,0,0,0-3,3v8a3,3,0,0,0,3,3h8a3,3,0,0,0,3-3V3A3,3,0,0,0,45,0Zm1,11a1,1,0,0,1-1,1H37a1,1,0,0,1-1-1V3a1,1,0,0,1,1-1h8a1,1,0,0,1,1,1Z"/><path d="M45,34H37a3,3,0,0,0-3,3v8a3,3,0,0,0,3,3h8a3,3,0,0,0,3-3V37A3,3,0,0,0,45,34Zm1,11a1,1,0,0,1-1,1H37a1,1,0,0,1-1-1V37a1,1,0,0,1,1-1h8a1,1,0,0,1,1,1Z"/><circle cx="41" cy="41" r="2"/><path d="M42.45,6.11c-2.15-1.08-2.38-1.33-3-1S39,6.11,39,8a1,1,0,0,0,1,1c.31,0,.25,0,2.45-1.11A1,1,0,0,0,42.45,6.11Z"/><path d="M42,22a1,1,0,0,0,0-2,3,3,0,0,0-3,3,1,1,0,0,0,0,2v2a1,1,0,0,0,2,0V25h1a1,1,0,0,0,0-2H41A1,1,0,0,1,42,22Z"/><path d="M23.56,15.17c-.64-.43-.26-.37-10.75,3.83H5a5,5,0,0,0-.89,9.91L5,36.12A1,1,0,0,0,6,37h4a1,1,0,0,0,1-1.12L10.13,29h2.68c10.77,4.31,9.91,4,10.19,4a1,1,0,0,0,1-1C24,14.73,24.19,15.6,23.56,15.17ZM12,27H6V21h6ZM4,21.17v5.66A3,3,0,0,1,4,21.17ZM8.87,35h-2l-.75-6h2ZM22,30.52l-8-3.2V20.68l8-3.2Z"/><path d="M27,14c.73,0,.46.12,4.83-6.45a1,1,0,0,0-1.66-1.1l-4,6A1,1,0,0,0,27,14Z"/><path d="M27.83,34.45a1,1,0,0,0-1.66,1.1C30.52,42.08,30.28,42,31,42a1,1,0,0,0,.83-1.55Z"/><path d="M31,23H27a1,1,0,0,0,0,2h4A1,1,0,0,0,31,23Z"/></g></svg>