<?xml version="1.0" encoding="utf-8"?>
<!-- Generator: Adobe Illustrator 19.2.0, SVG Export Plug-In . SVG Version: 6.00 Build 0)  -->
<svg version="1.1" id="Layer_1" xmlns="http://www.w3.org/2000/svg" xmlns:xlink="http://www.w3.org/1999/xlink" x="0px" y="0px"
	 viewBox="0 0 500 500" style="enable-background:new 0 0 500 500;" xml:space="preserve">
<style type="text/css">
	.st0{fill:#ECF4F7;}
	.st1{fill:#1C1D21;}
	.st2{fill:#83E1E5;}
	.st3{fill:#AAB1BA;}
	.st4{fill:none;stroke:#1C1D21;stroke-width:10;stroke-linecap:round;stroke-linejoin:round;stroke-miterlimit:10;}
	.st5{fill:#FDDF7F;}
	.st6{fill:#FFFFFF;}
</style>
<g>
	<g>
		<g>
			<path class="st1" d="M250,419.7c-13.9,0-27.8-1.7-41.2-5c-10.9-2.7-18.4-12.4-18.4-23.5v-19.2c0-22-11.4-42.3-30.6-54.1
				c-24.4-15.1-44.9-36.3-59.1-61.2c-14.7-25.7-22.4-55.1-22.4-84.9c0-19,3.1-37.7,9.2-55.6c0.9-2.7,3.9-4.1,6.6-3.2
				c2.7,0.9,4.1,3.9,3.2,6.6c-5.7,16.8-8.6,34.3-8.6,52.2c0,56.3,28.6,107.7,76.6,137.3c22.2,13.7,35.5,37.3,35.5,62.9v19.2
				c0,6.4,4.3,11.9,10.6,13.5c25.2,6.2,52.3,6.2,77.5,0c6.2-1.5,10.6-7.1,10.6-13.5v-19.2c0-25.6,13.3-49.2,35.5-62.9
				c48-29.7,76.6-81,76.6-137.3c0-89-72.4-161.4-161.4-161.4c-7.1,0-14.2,0.5-21.2,1.4c-2.8,0.4-5.4-1.6-5.8-4.5
				c-0.4-2.8,1.6-5.4,4.5-5.8c7.4-1,15-1.5,22.6-1.5c94.7,0,171.7,77,171.7,171.7c0,29.8-7.7,59.1-22.4,84.9
				c-14.2,25-34.6,46.1-59.1,61.2c-19.1,11.8-30.6,32.1-30.6,54.1v19.2c0,11.2-7.6,20.8-18.4,23.5C277.8,418,263.9,419.7,250,419.7z
				 M111.4,84.5c-1,0-2-0.3-2.9-0.9c-2.4-1.6-3-4.8-1.4-7.2c18.3-27.4,43.9-48.9,73.9-62.1c2.6-1.1,5.7,0,6.8,2.7
				c1.1,2.6,0,5.7-2.7,6.8c-28.3,12.4-52.3,32.6-69.5,58.3C114.7,83.7,113.1,84.5,111.4,84.5z"/>
		</g>
	</g>
	<g>
		<g>
			<g>
				<path class="st1" d="M250,459.7c-13.5,0-27.1-1.4-40.2-4.1c-2.8-0.6-4.6-3.3-4-6.1c0.6-2.8,3.3-4.6,6.1-4
					c24.9,5.1,51.3,5.1,76.2,0c2.8-0.6,5.5,1.2,6.1,4c0.6,2.8-1.2,5.5-4,6.1C277,458.4,263.5,459.7,250,459.7z"/>
			</g>
		</g>
	</g>
	<g>
		<g>
			<path class="st1" d="M260.2,500h-20.5c-18.8,0-34.1-15.3-34.1-34.1v-55.6c0-2.9,2.3-5.2,5.2-5.2c2.9,0,5.2,2.3,5.2,5.2v55.6
				c0,13.1,10.6,23.7,23.7,23.7h20.5c13.1,0,23.7-10.6,23.7-23.7v-55.6c0-2.9,2.3-5.2,5.2-5.2c2.9,0,5.2,2.3,5.2,5.2v55.6
				C294.3,484.7,279,500,260.2,500z"/>
		</g>
	</g>
	<g>
		<g>
			<g>
				<path class="st5" d="M250,252.3c0,18.6-18.2,31.9-35.8,26c-45.1-15-77.6-57.5-77.6-107.6c0-50.1,32.5-92.6,77.6-107.6
					c17.6-5.9,35.8,7.4,35.8,26V252.3z"/>
			</g>
		</g>
		<g>
			<g>
				<path class="st5" d="M250,252.3c0,18.6,18.2,31.9,35.8,26c45.1-15,77.6-57.5,77.6-107.6c0-50.1-32.5-92.6-77.6-107.6
					c-17.6-5.9-35.8,7.4-35.8,26V252.3z"/>
			</g>
		</g>
		<g>
			<g>
				<path class="st1" d="M222.8,284.9c-3.4,0-6.9-0.6-10.2-1.7c-48.5-16.1-81.1-61.3-81.1-112.5c0-51.2,32.6-96.4,81.1-112.5
					c9.9-3.3,20.5-1.7,29,4.5c8.6,6.2,13.5,15.8,13.5,26.4v163.1c0,10.6-4.9,20.2-13.5,26.4C236,282.8,229.5,284.9,222.8,284.9z
					 M222.8,66.9c-2.3,0-4.7,0.4-6.9,1.1c-44.3,14.7-74,56-74,102.7c0,46.7,29.7,87.9,74,102.7c6.7,2.2,13.9,1.1,19.7-3.1
					c5.9-4.2,9.2-10.8,9.2-18V89.2c0-7.2-3.4-13.8-9.2-18C231.8,68.4,227.3,66.9,222.8,66.9z"/>
			</g>
		</g>
		<g>
			<g>
				<path class="st1" d="M192.4,245.5c-2.9,0-5.2-2.3-5.2-5.2c0-8.4,6.8-15.3,15.3-15.3c2.7,0,4.9-2.2,4.9-4.9
					c0-2.7-2.2-4.9-4.9-4.9c-8.4,0-15.3-6.8-15.3-15.3c0-8.4,6.8-15.3,15.3-15.3c2.7,0,4.9-2.2,4.9-4.9c0-2.7-2.2-4.9-4.9-4.9
					c-8.4,0-15.3-6.8-15.3-15.3c0-8.4,6.8-15.3,15.3-15.3c2.7,0,4.9-2.2,4.9-4.9s-2.2-4.9-4.9-4.9c-8.4,0-15.3-6.8-15.3-15.3
					c0-6.3,3.8-11.9,9.6-14.2c0.3-0.1,0.4-0.4,0.4-0.6V99c0-2.9,2.3-5.2,5.2-5.2c2.9,0,5.2,2.3,5.2,5.2v5.4c0,4.6-2.7,8.6-7,10.3
					c-1.9,0.7-3.1,2.5-3.1,4.6c0,2.7,2.2,4.9,4.9,4.9c8.4,0,15.3,6.8,15.3,15.3c0,8.4-6.8,15.3-15.3,15.3c-2.7,0-4.9,2.2-4.9,4.9
					s2.2,4.9,4.9,4.9c8.4,0,15.3,6.8,15.3,15.3c0,8.4-6.8,15.3-15.3,15.3c-2.7,0-4.9,2.2-4.9,4.9s2.2,4.9,4.9,4.9
					c8.4,0,15.3,6.8,15.3,15.3c0,8.4-6.8,15.3-15.3,15.3c-2.7,0-4.9,2.2-4.9,4.9C197.6,243.2,195.3,245.5,192.4,245.5z"/>
			</g>
		</g>
		<g>
			<g>
				<path class="st1" d="M307.6,245.5c-2.9,0-5.2-2.3-5.2-5.2c0-2.7-2.2-4.9-4.9-4.9c-8.4,0-15.3-6.8-15.3-15.3
					c0-8.4,6.8-15.3,15.3-15.3c2.7,0,4.9-2.2,4.9-4.9s-2.2-4.9-4.9-4.9c-8.4,0-15.3-6.8-15.3-15.3c0-8.4,6.8-15.3,15.3-15.3
					c2.7,0,4.9-2.2,4.9-4.9s-2.2-4.9-4.9-4.9c-8.4,0-15.3-6.8-15.3-15.3c0-8.4,6.8-15.3,15.3-15.3c2.7,0,4.9-2.2,4.9-4.9
					c0-2-1.2-3.8-3.1-4.6c-4.2-1.7-7-5.7-7-10.3V99c0-2.9,2.3-5.2,5.2-5.2c2.9,0,5.2,2.3,5.2,5.2v5.4c0,0.3,0.2,0.5,0.4,0.6
					c5.9,2.3,9.6,7.9,9.6,14.2c0,8.4-6.8,15.3-15.3,15.3c-2.7,0-4.9,2.2-4.9,4.9s2.2,4.9,4.9,4.9c8.4,0,15.3,6.8,15.3,15.3
					c0,8.4-6.8,15.3-15.3,15.3c-2.7,0-4.9,2.2-4.9,4.9c0,2.7,2.2,4.9,4.9,4.9c8.4,0,15.3,6.8,15.3,15.3c0,8.4-6.8,15.3-15.3,15.3
					c-2.7,0-4.9,2.2-4.9,4.9c0,2.7,2.2,4.9,4.9,4.9c8.4,0,15.3,6.8,15.3,15.3C312.8,243.2,310.4,245.5,307.6,245.5z"/>
			</g>
		</g>
		<g>
			<g>
				<path class="st1" d="M277.2,284.9c-6.6,0-13.2-2.1-18.8-6.2c-8.6-6.2-13.5-15.8-13.5-26.4V89.2c0-10.6,4.9-20.2,13.5-26.4
					c8.5-6.1,19.1-7.8,29-4.5c48.5,16.1,81.1,61.3,81.1,112.5c0,51.2-32.6,96.4-81.1,112.5C284,284.3,280.6,284.9,277.2,284.9z
					 M277.2,66.9c-4.5,0-9,1.4-12.8,4.2c-5.9,4.2-9.2,10.8-9.2,18v163.1c0,7.2,3.4,13.8,9.2,18c5.8,4.2,13,5.3,19.7,3.1
					c44.3-14.7,74-56,74-102.7c0-46.7-29.7-87.9-74-102.7C281.9,67.3,279.5,66.9,277.2,66.9z"/>
			</g>
		</g>
	</g>
</g>
</svg>
