<svg xmlns="http://www.w3.org/2000/svg" viewBox="0 0 48 48"><title>3-Content Marketing_1</title><g id="_3-Content_Marketing_1" data-name="3-Content Marketing_1"><path d="M21,43H1a1,1,0,0,1-1-1V26a1,1,0,0,1,1-1H17v2H2V41H20V38h2v4A1,1,0,0,1,21,43Z"/><path d="M13,48H9a1,1,0,0,1-1-1V42a1,1,0,0,1,1-1h4a1,1,0,0,1,1,1v5A1,1,0,0,1,13,48Zm-3-2h2V43H10Z"/><rect x="6" y="46" width="10" height="2"/><path d="M29,39H17a1,1,0,0,1-1-1V20a1,1,0,0,1,1-1H29a1,1,0,0,1,1,1V38A1,1,0,0,1,29,39ZM18,37H28V21H18Z"/><path d="M35,39a1,1,0,0,1-1-1V34H30V32h5a1,1,0,0,1,1,1v2.586l3.293-3.293A1,1,0,0,1,40,32h3a3,3,0,0,0,3-3V5a3,3,0,0,0-3-3H9A3,3,0,0,0,6,5V27H4V5A5.006,5.006,0,0,1,9,0H43a5.006,5.006,0,0,1,5,5V29a5.006,5.006,0,0,1-5,5H40.414l-4.707,4.707A1,1,0,0,1,35,39Z"/><rect x="1" y="37" width="20" height="2"/><rect x="17" y="33" width="12" height="2"/><rect x="17" y="23" width="12" height="2"/><path d="M43,16H9a1,1,0,0,1-1-1V7A1,1,0,0,1,9,6H43a1,1,0,0,1,1,1v8A1,1,0,0,1,43,16ZM10,14H42V8H10Z"/><rect x="12" y="10" width="6" height="2"/><rect x="20" y="10" width="20" height="2"/><rect x="33" y="18" width="11" height="2"/><rect x="33" y="22" width="11" height="2"/><rect x="33" y="26" width="8" height="2"/></g></svg>