<svg xmlns="http://www.w3.org/2000/svg" viewBox="0 0 48 48"><defs><style>.cls-1{fill:#42a5f5;}.cls-2{fill:#424242;}</style></defs><title>Online Marketing</title><g id="Online_Marketing" data-name="Online Marketing"><path class="cls-1" d="M44,1H4A4,4,0,0,0,0,5V44a4,4,0,0,0,4,4H44a4,4,0,0,0,4-4V5A4,4,0,0,0,44,1ZM13,4a1,1,0,0,1,0,2A1,1,0,0,1,13,4ZM9,4A1,1,0,0,1,9,6,1,1,0,0,1,9,4ZM5,4A1,1,0,0,1,5,6,1,1,0,0,1,5,4ZM46,44a2,2,0,0,1-2,2H4a2,2,0,0,1-2-2V9H46Z"/><polygon class="cls-1" points="11 30 11 24 17 27 11 30"/><path class="cls-2" d="M19,34H8a3,3,0,0,1-3-3V23a3,3,0,0,1,3-3H19a3,3,0,0,1,3,3v8A3,3,0,0,1,19,34ZM8,22a1,1,0,0,0-1,1v8a1,1,0,0,0,1,1H19a1,1,0,0,0,1-1V23a1,1,0,0,0-1-1Z"/><path class="cls-1" d="M21,14H6a1,1,0,0,1,0-2H21A1,1,0,0,1,21,14Z"/><path class="cls-1" d="M21,18H6a1,1,0,0,1,0-2H21A1,1,0,0,1,21,18Z"/><path class="cls-1" d="M42,14H27a1,1,0,0,1,0-2H42A1,1,0,0,1,42,14Z"/><path class="cls-1" d="M42,18H27a1,1,0,0,1,0-2H42A1,1,0,0,1,42,18Z"/><path class="cls-1" d="M21,39H6a1,1,0,0,1,0-2H21A1,1,0,0,1,21,39Z"/><path class="cls-1" d="M21,43H6a1,1,0,0,1,0-2H21A1,1,0,0,1,21,43Z"/><path class="cls-2" d="M44,22a2.41,2.41,0,0,0,0-.26,1,1,0,0,0-.62-.67C43,21,27.12,21,26.88,21c-1.21.16-.88.19-.88,21a1,1,0,0,0,1,1c17.21,0,16.23.1,16.62-.22S44,43.55,44,22ZM33.72,32,28,39.15V24.85Zm-4.64-9H40.92L35,30.4ZM35,33.6,40.92,41H29.08ZM36.28,32,42,24.85v14.3Z"/></g></svg>